<svg xmlns="http://www.w3.org/2000/svg" viewBox="0 0 720 720" role="img" aria-labelledby="title desc">
  <title id="title">Network security lecturer</title>
  <desc id="desc">Portrait illustration with network nodes.</desc>
  <rect width="720" height="720" fill="#f5f2ff"/>
  <circle cx="360" cy="250" r="115" fill="#f0c7a0"/>
  <path d="M245 240c22-102 205-118 232-4 8 34 0 66-16 98-58-30-130-30-202 0-18-32-22-64-14-94z" fill="#2f2a4f"/>
  <path d="M155 670c30-175 115-250 205-250s175 75 205 250z" fill="#5948a8"/>
  <path d="M105 150h115M162 95v110M535 130h85M575 90v80" stroke="#5948a8" stroke-width="10" stroke-linecap="round"/>
  <circle cx="105" cy="150" r="18" fill="#f7c948"/>
  <circle cx="220" cy="150" r="18" fill="#0f6fae"/>
  <circle cx="575" cy="90" r="18" fill="#f7c948"/>
  <circle cx="620" cy="130" r="18" fill="#0f6fae"/>
</svg>
